HIERARCHY
ROOT root
{
	OFFSET	0	13.1	24.9
	CHANNELS 6  Xposition Yposition Zposition Xrotation Yrotation Zrotation
	JOINT spine_1
	{
		OFFSET	0	9.99999	0
		CHANNELS 3  Xrotation Yrotation Zrotation
		JOINT spine_2
		{
			OFFSET	0	112	-10
			CHANNELS 3  Xrotation Yrotation Zrotation
			JOINT spine_3
			{
				OFFSET	0	206.5	19.3
				CHANNELS 3  Xrotation Yrotation Zrotation
				JOINT spine_4
				{
					OFFSET	0	110.4	14.6
					CHANNELS 3  Xrotation Yrotation Zrotation
					JOINT neck_1
					{
						OFFSET	0	71.8	-50.3
						CHANNELS 3  Xrotation Yrotation Zrotation
						JOINT neck_2
						{
							OFFSET	0	86.2	-25.8
							CHANNELS 3  Xrotation Yrotation Zrotation
							JOINT head_ee
							{
								OFFSET	0	179.8	-8.7
								CHANNELS 3  Xrotation Yrotation Zrotation
								End Site
								{
									OFFSET	1	0	0
								}
							}
						}
					}
					JOINT left_clavicle
					{
						OFFSET	-43.2	22.4	-70.8
						CHANNELS 3  Xrotation Yrotation Zrotation
						JOINT left_shoulder
						{
							OFFSET	-93.9	-5.79999	48.7
							CHANNELS 3  Xrotation Yrotation Zrotation
							JOINT left_elbow
							{
								OFFSET	-291.4	-30.8	15.2
								CHANNELS 3  Xrotation Yrotation Zrotation
								JOINT left_lowarm_twist
								{
									OFFSET	-110.7	-3.89999	13.6
									CHANNELS 3  Xrotation Yrotation Zrotation
									JOINT left_hand
									{
										OFFSET	-110.7	-3.89999	13.6
										CHANNELS 3  Xrotation Yrotation Zrotation
										JOINT left_ee
										{
											OFFSET	-80.8	-5.10001	12.1
											CHANNELS 3  Xrotation Yrotation Zrotation
											End Site
											{
												OFFSET	1	0	0
											}
										}
									}
								}
							}
						}
					}
					JOINT right_clavicle
					{
						OFFSET	43.2	22.4	-70.8
						CHANNELS 3  Xrotation Yrotation Zrotation
						JOINT right_shoulder
						{
							OFFSET	93.9	-5.79999	48.7
							CHANNELS 3  Xrotation Yrotation Zrotation
							JOINT right_elbow
							{
								OFFSET	291.4	-30.8	15.2
								CHANNELS 3  Xrotation Yrotation Zrotation
								JOINT right_lowarm_twist
								{
									OFFSET	110.7	-3.89999	13.6
									CHANNELS 3  Xrotation Yrotation Zrotation
									JOINT right_hand
									{
										OFFSET	110.7	-3.89999	13.6
										CHANNELS 3  Xrotation Yrotation Zrotation
										JOINT right_ee
										{
											OFFSET	80.8	-5.10001	12.1
											CHANNELS 3  Xrotation Yrotation Zrotation
											End Site
											{
												OFFSET	1	0	0
											}
										}
									}
								}
							}
						}
					}
				}
			}
		}
	}
	JOINT left_hip
	{
		OFFSET	-82.8	-127.5	0.300001
		CHANNELS 3  Xrotation Yrotation Zrotation
		JOINT left_knee
		{
			OFFSET	-28.2	-396.7	2.2
			CHANNELS 3  Xrotation Yrotation Zrotation
			JOINT left_ankle
			{
				OFFSET	-11.7	-411.3	35.4
				CHANNELS 3  Xrotation Yrotation Zrotation
				JOINT left_toes
				{
					OFFSET	0	-60	-88.6
					CHANNELS 3  Xrotation Yrotation Zrotation
					JOINT left_foot_ee
					{
						OFFSET	-22.5	-16.5	-42.2
						CHANNELS 3  Xrotation Yrotation Zrotation
						End Site
						{
							OFFSET	1	0	0
						}
					}
				}
			}
		}
	}
	JOINT right_hip
	{
		OFFSET	82.8	-127.5	0.300001
		CHANNELS 3  Xrotation Yrotation Zrotation
		JOINT right_knee
		{
			OFFSET	28.2	-396.7	2.2
			CHANNELS 3  Xrotation Yrotation Zrotation
			JOINT right_ankle
			{
				OFFSET	11.7	-411.3	35.4
				CHANNELS 3  Xrotation Yrotation Zrotation
				JOINT right_toes
				{
					OFFSET	0	-60	-88.6
					CHANNELS 3  Xrotation Yrotation Zrotation
					JOINT right_foot_ee
					{
						OFFSET	22.5	-16.5	-42.2
						CHANNELS 3  Xrotation Yrotation Zrotation
						End Site
						{
							OFFSET	1	0	0
						}
					}
				}
			}
		}
	}
}
MOTION
Frames: 7
Frame Time: 0.02
3956.13 650.792 -319.156 -44.7131 38.9808 26.0568 12.4961 0.447116 2.43996 12.4994 0.290997 2.46345 12.5021 0.307153 2.46148 12.4943 0.691934 2.38216 -14.9109 3.44894 -2.14329 -14.9511 7.87008 -0.886964 -0.0 0.0 -0.0 -1.30828 16.4876 -0.110206 -25.7036 -42.1777 61.1736 0.529826 -14.7063 0.0683725 31.3099 0.0240143 -3.9502 3.88974 -19.858 17.5579 -0.0 0.0 -0.0 11.6216 12.7499 -23.3977 89.2147 -69.0747 19.4801 0.196249 5.55275 -0.00951701 85.1977 4.45021 8.87521 -4.33384 -28.8494 12.1691 0.0 0.0 0.0 46.5456 5.3207 10.3164 -14.3267 0.32007 2.1696 38.3645 24.23 -4.98451 31.8056 -0.0 -0.0 -0.0 0.0 -0.0 48.7797 14.6017 5.56747 -29.5808 -0.059896 -4.48905 32.2275 -27.049 4.41728 19.6039 -0.0 -0.0 0.0 0.0 0.0 
3953.0 648.83 -325.412 -43.6064 37.053 24.8513 12.6558 0.499001 2.60695 12.6595 0.332162 2.63339 12.6634 0.356907 2.63015 12.6546 0.767679 2.54088 -12.8428 3.5945 -2.77151 -12.8661 8.5788 -1.58839 -0.0 0.0 -0.0 -1.21072 15.5884 -0.0889127 -28.635 -38.9375 60.0579 0.596683 -16.4667 0.0863388 33.7769 -0.0657427 -4.25243 4.3453 -26.7496 16.7793 -0.0 0.0 -0.0 11.6217 12.4022 -23.4043 90.0054 -70.5098 20.2872 0.184721 5.22844 -0.00843408 84.4179 4.35696 8.83894 -4.36613 -28.7559 12.4105 0.0 0.0 0.0 45.4663 8.68096 8.82645 -14.3486 0.320141 2.17295 42.1952 24.9698 -5.37267 29.2818 -0.0 -0.0 -0.0 0.0 -0.0 48.6992 14.1525 4.31971 -28.6196 -0.0944592 -4.34559 35.0917 -26.603 4.71972 15.2505 -0.0 -0.0 0.0 0.0 0.0 
3951.28 649.322 -324.938 -43.1936 35.8063 24.3662 12.7646 0.543296 2.57714 12.7682 0.378262 2.60646 12.7742 0.407832 2.602 12.7657 0.813523 2.50504 -13.1335 3.51762 -3.63898 -13.1478 8.96744 -2.41871 -0.0 0.0 -0.0 -1.78581 17.1421 -0.752456 -24.5747 -41.2417 61.0148 0.440022 -12.2969 0.0474013 32.8452 -0.0303121 -4.13873 4.88715 -28.0186 19.6078 -0.0 0.0 -0.0 11.623 12.6941 -23.4019 90.255 -71.1718 21.7199 0.195196 5.52314 -0.00941548 85.2209 4.453 8.87627 -4.3702 -28.8974 12.3381 0.0 0.0 0.0 44.9069 10.1451 8.22736 -14.2882 0.319941 2.16368 42.2417 25.0801 -5.38071 27.282 -0.0 -0.0 -0.0 0.0 -0.0 48.4485 10.019 4.94471 -25.1712 -0.198533 -3.82668 32.7549 -26.3005 4.45471 9.91183 -0.0 -0.0 0.0 0.0 0.0 
3944.71 645.31 -321.929 -43.1972 34.5045 24.0237 13.2324 0.502896 2.40955 13.2356 0.348598 2.43665 13.2402 0.395971 2.4294 13.2328 0.774576 2.33646 -14.3569 3.91579 -4.11381 -14.3878 9.96312 -2.64417 -0.0 0.0 -0.0 -2.15417 17.5744 -1.24953 -21.0371 -41.0732 63.9926 0.305782 -8.61362 0.0230285 33.6683 -0.061518 -4.23921 4.9369 -28.0225 19.9369 -0.0 0.0 -0.0 11.438 11.7621 -23.0001 90.4095 -70.7631 22.6212 0.190501 5.3911 -0.00896897 85.162 4.44593 8.87357 -4.6098 -28.9103 13.6597 0.0 0.0 0.0 44.8043 -3.77152 8.39888 -15.3783 0.322047 2.33093 42.3938 26.6292 -5.45087 31.1003 -0.0 -0.0 -0.0 0.0 -0.0 48.6379 13.1418 4.54192 -24.995 -0.20301 -3.80001 42.1482 -25.5122 5.38726 -5.56959 0.0 0.0 0.0 0.0 0.0 
3938.82 644.48 -326.763 -43.006 33.5579 23.9335 13.565 0.532295 2.3658 13.5681 0.380719 2.39485 13.5739 0.441196 2.38445 13.5668 0.812142 2.28494 -14.3536 4.17678 -4.07843 -14.3931 10.4398 -2.52609 -0.0 0.0 -0.0 -2.10537 17.1502 -1.24666 -24.1726 -42.4604 61.0884 0.384129 -10.774 0.0362232 33.2209 -0.0443773 -4.18465 5.61929 -27.5228 24.8859 -0.0 0.0 -0.0 11.3252 8.75307 -22.7579 86.6788 -70.4322 20.0395 0.190264 5.38442 -0.00894667 84.7169 4.39266 8.85299 -4.89734 -28.4233 15.6205 0.0 0.0 0.0 45.0186 2.59744 6.64322 -18.8211 0.307804 2.85889 41.7498 25.2713 -5.34209 33.9122 -0.0 -0.0 -0.0 0.0 -0.0 49.6375 13.3913 3.80523 -26.7426 -0.154986 -4.06389 40.9607 -25.2701 5.26833 -5.89522 0.0 0.0 0.0 0.0 0.0 
3934.79 642.066 -321.019 -42.0811 31.916 22.6635 13.671 0.522701 2.33759 13.6739 0.372938 2.36609 13.6794 0.437017 2.3551 13.6725 0.803384 2.25661 -15.6657 6.99631 -6.06601 -15.839 16.925 -3.28802 -0.0 0.0 -0.0 -2.73593 16.5466 -2.33936 -20.6724 -42.9228 63.6802 0.307421 -8.65908 0.0232745 33.0659 -0.0385379 -4.16572 5.96419 -27.483 27.3087 -0.0 0.0 -0.0 11.5382 10.317 -23.2368 87.7617 -71.0011 21.4928 0.208891 5.90799 -0.0107793 85.175 4.4475 8.87417 -5.18039 -28.9537 16.8385 0.0 0.0 0.0 45.3217 0.348427 7.30264 -22.6361 0.255022 3.44178 40.2137 25.9553 -5.22061 35.7816 -0.0 -0.0 -0.0 0.0 -0.0 49.0912 14.8965 3.79045 -25.4678 -0.190812 -3.87155 42.4359 -24.8419 5.39019 -11.6527 0.0 0.0 0.0 0.0 0.0 
3931.01 640.202 -317.053 -41.1664 31.1265 21.2141 13.6966 0.517658 2.364 13.6996 0.366225 2.39213 13.7047 0.432067 2.38112 13.6977 0.802602 2.28309 -15.4233 6.79271 -5.28042 -15.5872 16.0936 -2.65324 -0.0 0.0 -0.0 -3.23958 16.7343 -3.09465 -16.908 -44.4305 66.103 0.200107 -5.66122 0.0098941 32.8787 -0.0315549 -4.14283 5.4722 -26.5399 24.5298 -0.0 0.0 -0.0 11.6182 13.473 -23.3739 88.3532 -71.8293 22.6486 0.1789 5.06454 -0.00791194 85.1173 4.44057 8.87152 -5.5373 -28.9062 18.92 0.0 0.0 0.0 45.9875 2.79351 7.2314 -25.5104 0.189685 3.87798 41.6103 24.9435 -5.31796 40.0656 -0.0 -0.0 -0.0 0.0 -0.0 49.2706 16.2501 3.81663 -26.4499 -0.163589 -4.01981 42.7698 -25.5732 5.44617 -13.7661 0.0 0.0 0.0 0.0 0.0 
